<?xml version="1.0" encoding="UTF-8"?>
<svg id="Layer_1" data-name="Layer 1" xmlns="http://www.w3.org/2000/svg" version="1.1" viewBox="0 0 477.9 186.1">
  <defs>
    <style>
      .cls-1 {
        fill: blue;
        stroke-width: 0px;
      }
    </style>
  </defs>
  <path class="cls-1" d="M83.9,80.7v54.2h16.6v-40h19v40h16.6v-54.2h-52.2Z"/>
  <path class="cls-1" d="M167.4,134.9h-16.6v-54.2h16.6v54.2ZM149.1,59.9c0-5.4,4.5-9.7,9.9-9.7s9.8,4.3,9.8,9.7-4.5,9.7-9.8,9.7c-5.5,0-9.9-4.3-9.9-9.7Z"/>
  <path class="cls-1" d="M198.5,49.9h-16.6v85h16.6V49.9Z"/>
  <path class="cls-1" d="M229.6,49.9h-16.6v85h16.6V49.9Z"/>
  <path class="cls-1" d="M260.7,134.9h-16.6v-54.2h16.6v54.2ZM242.5,59.9c0-5.4,4.5-9.7,9.9-9.7s9.8,4.3,9.8,9.7-4.5,9.7-9.8,9.7c-5.5,0-9.9-4.3-9.9-9.7Z"/>
  <path class="cls-1" d="M301.2,122.1c8,0,14-6.2,14-14.2s-6-14.2-14-14.2-14.1,6.2-14.1,14.2,6,14.2,14.1,14.2ZM301.2,79.4c16,0,29.5,12.1,29.5,28.4s-13.6,28.4-29.5,28.4-29.6-12.1-29.6-28.4,13.7-28.4,29.6-28.4Z"/>
  <path class="cls-1" d="M341.8,80.7v54.2h16.6v-40h19v40h16.6v-54.2h-52.2Z"/>
</svg>