<svg width="613" height="613" viewBox="0 0 613 613" fill="none" xmlns="http://www.w3.org/2000/svg">
<path fill-rule="evenodd" clip-rule="evenodd" d="M158.183 608.178L159.818 612.813L321.832 555.648L322.349 555.483L494.965 587.385L495.651 587.523L497.225 579.163L508.624 580.934L509.785 572.984L513.944 573.453L514.631 573.521L515.623 565.065L526.435 565.971L527.121 566.04L527.731 558.012L532.613 558.216L533.018 549.727L544.555 549.878L544.609 541.831L548.81 541.71L549.497 541.676L549.315 533.175L560.821 532.514L560.319 524.484L565.145 524.003L564.378 515.561L575.852 514.086L574.788 506.041L578.907 505.335L579.594 505.232L578.248 496.873L589.579 494.595L587.965 486.662L592.703 485.501L590.781 477.25L601.935 474.177L599.791 466.427L604.406 464.945L601.911 456.827L612.161 453.21L612.813 452.969L552.92 283.214L585.049 112.488L585.186 111.801L577.331 110.349L577.946 106.139L578.049 105.453L569.74 104.162L571.015 93.3048L571.083 92.6185L563.144 91.7235L563.464 87.5051L563.533 86.8184L555.186 86.1192L555.743 74.4649L547.752 74.1311L547.78 69.9016V69.2153L539.382 69.1053L539.133 57.4447L531.128 57.6747L530.862 53.4302L530.828 52.7439L522.406 53.228L521.355 41.6592L513.433 42.4482L512.879 38.2619L512.776 37.5756L504.468 38.6438L502.722 27.7955L502.619 27.1092L494.741 28.4598L493.901 24.3298L493.764 23.6434L485.501 25.3044L482.852 13.9325L475.106 15.8298L473.793 11.0839L465.643 13.3289L462.433 2.88208L462.227 2.19577L454.63 4.6345L452.995 0L290.955 57.1738L290.464 57.3312L117.846 25.4283L117.16 25.2911L115.593 33.6169L104.188 31.8453L103.018 39.8618L98.8703 39.3943L98.1838 39.3259L97.1951 47.7466L86.3777 46.8404L85.6913 46.772L85.0818 54.7986L80.2353 54.5961L79.8293 63.0867L68.2921 62.9355L68.238 70.9817L64.0368 71.1024L63.3506 71.1367L63.5318 79.6017L51.9913 80.265L52.4975 88.3589L47.6324 88.8435L48.3992 97.2897L36.9601 98.7608L38.0211 106.778L33.9404 107.477L33.254 107.58L34.6 115.94L23.2667 118.218L24.8727 126.111L20.1101 127.278L22.0342 135.538L10.9138 138.602L13.065 146.375L9.06068 147.661L8.40863 147.867L10.9034 155.986L0.652048 159.603L0 159.843L59.8924 329.595L27.7622 500.326L27.625 501.012L35.4762 502.463L34.8663 506.64L34.7635 507.326L43.0824 508.618L41.7997 519.542L41.731 520.229L49.6666 521.123L49.3489 525.307L49.2802 525.993L57.6622 526.696L57.1051 538.347L65.0946 538.681L65.0662 542.912V543.598L73.4648 543.708L73.7144 555.368L81.6876 555.139L81.9508 559.349L81.985 560.035L90.3657 559.554L91.4219 571.188L99.3788 570.395L99.9332 574.585L100.036 575.271L108.384 574.198L110.126 585.017L110.229 585.703L118.104 584.353L118.945 588.483L119.082 589.169L127.321 587.513L129.961 598.847L137.741 596.941L139.057 601.695L147.165 599.461L150.381 609.93L150.587 610.616L158.183 608.178ZM159.53 607.746L160.676 610.994L274.374 570.882L159.53 607.746ZM326.203 552.597L322.18 554.016L316.939 553.048L321.66 551.891L326.203 552.597ZM333.821 549.909L329.97 551.268L326.022 550.823L330.344 549.764L333.821 549.909ZM340.05 547.712L337.396 548.648L335.265 548.559L338.548 547.755L340.05 547.712ZM396.018 529.473L416.162 523.922L512.003 493.161L512.933 488.221L396.018 529.473ZM513.236 486.613L376.515 534.847L361.12 539.089L344.859 542.358L327.843 544.547L312.202 545.445L295.474 545.226L278.758 543.825L205.223 532.4L127.903 518.109L94.8287 424.371L77.9561 369.456L74.2966 353.742L71.5589 336.744L70.0542 320.163L69.7014 303.667L70.4876 287.219L72.4615 270.41L99.612 126.154L235.856 78.0877L251.612 73.7461L268.29 70.3938L284.185 68.3506L301.154 67.3756L317.406 67.5885L333.92 68.9723L409.137 80.6594L484.908 94.6642L518.101 188.737L534.776 243.01L538.629 259.557L541.206 275.558L542.76 292.681L543.112 309.121L542.302 326.065L540.392 342.328L513.236 486.613ZM514.439 487.69L513.5 492.68L520.4 490.465L521.151 485.322L514.439 487.69ZM521.382 483.738L514.742 486.081L538.064 362.152L533.669 399.582L521.382 483.738ZM522.662 484.789L521.903 489.983L523.099 489.599L523.707 484.42L522.662 484.789ZM523.891 482.854L522.893 483.206L527.781 449.724L523.891 482.854ZM525.152 483.91L524.538 489.137L531.757 486.82L532.166 481.435L525.152 483.91ZM532.283 479.893L525.336 482.344L534.854 401.277L540.581 362.052L539.468 385.348L532.283 479.893ZM533.585 480.935L533.172 486.366L534.661 485.888L534.921 480.463L533.585 480.935ZM534.994 478.936L533.702 479.392L537.13 434.258L534.994 478.936ZM536.355 479.957L536.093 485.428L543.585 483.024L543.622 477.393L536.355 479.957ZM543.632 475.889L536.428 478.431L540.936 384.139L543.885 345.302L544.357 367.353L543.632 475.889ZM545.045 476.891L545.007 482.567L546.808 481.989L546.687 476.312L545.045 476.891ZM546.655 474.822L545.055 475.387L545.441 418.028L546.655 474.822ZM548.087 475.818L548.209 481.54L556.114 479.002L555.746 473.115L548.087 475.818ZM555.654 471.647L548.055 474.328L545.777 367.913L546.04 328.828L548.241 353.081L555.654 471.647ZM557.077 472.646L557.448 478.574L559.566 477.894L559.028 471.957L557.077 472.646ZM558.896 470.504L556.986 471.178L552.615 401.288L558.896 470.504ZM560.377 471.481L560.92 477.46L569.237 474.791L568.423 468.642L560.377 471.481ZM568.233 467.21L560.245 470.028L549.541 352.121L547.289 316.113L547.502 314.649L550.528 333.436L568.233 467.21ZM569.775 468.165L570.594 474.355L573.095 473.552L572.095 467.347L569.775 468.165ZM571.867 465.928L569.586 466.733L558.471 382.755L571.867 465.928ZM573.419 466.88L574.424 473.125L583.213 470.305L581.907 463.885L573.419 466.88ZM581.622 462.486L573.19 465.461L551.998 333.84L548.528 307.624L549.028 304.203L552.103 317.406L581.622 462.486ZM583.236 463.416L584.55 469.875L587.4 468.961L585.891 462.479L583.236 463.416ZM585.568 461.094L582.951 462.017L563.385 365.847L585.568 461.094ZM587.23 462.007L588.749 468.528L598.061 465.539L596.207 458.839L587.23 462.007ZM595.83 457.474L586.907 460.622L553.419 316.866L549.87 299.42L550.72 294.904L552.025 299.153L595.83 457.474ZM597.559 458.362L599.424 465.101L602.69 464.053L600.611 457.285L597.559 458.362ZM600.195 455.934L597.181 456.997L566.908 347.592L600.195 455.934ZM601.496 455.475L611.029 452.112L552.403 285.958L551.371 291.444L553.862 300.446L601.496 455.475ZM551.32 278.681L575.735 111.451L569.03 110.212L549.766 274.276L551.32 278.681ZM549.395 277.432L550.886 281.656L550.118 286.915L548.829 282.257L549.395 277.432ZM548.237 269.944L560.496 108.634L554.165 107.464L546.616 265.347L548.237 269.944ZM546.442 269.061L547.974 273.405L547.631 277.927L546.412 273.522L546.442 269.061ZM545.068 260.96L546.103 105.974L540.148 104.873L543.306 252.417L543.575 256.73L545.068 260.96ZM543.895 261.843L545.04 265.089L545.017 268.482L544.104 265.18L543.895 261.843ZM541.889 251.951L541.874 251.249L532.636 103.485L526.871 102.42L538.888 234.782L540.723 248.644L541.889 251.951ZM541.614 255.377L541.985 256.43L542.01 257.615L541.818 256.918L541.614 255.377ZM538.087 241.173L537.928 240.723L533.505 218.988L514.365 100.108L519.78 101.109L537.584 235.631L538.087 241.173ZM527.087 209.997L519.221 187.702L490.979 95.7858L496.016 96.7168L525.645 203.805L527.087 209.997ZM529.234 220.291L529.971 222.379L530.269 223.659L529.234 220.291ZM508.088 156.149L489.455 95.5045L486.499 94.9578L508.088 156.149ZM485.972 93.4644L489 94.0243L488.692 93.0207L485.648 92.5477L485.972 93.4644ZM485.107 91.0159L488.225 91.5001L486.045 84.4062L482.64 84.0226L485.107 91.0159ZM481.092 83.848L483.535 90.7715L407.461 78.9545L369.649 71.9661L393.075 73.929L481.092 83.848ZM482.136 82.593L485.609 82.9844L485.198 81.6481L481.699 81.3548L482.136 82.593ZM480.167 81.2264L480.588 82.4185L440.59 77.9104L480.167 81.2264ZM481.193 79.9197L484.759 80.2185L482.471 72.7728L478.614 72.6119L481.193 79.9197ZM477.105 72.5487L479.661 79.7913L392.449 72.4841L353.17 68.057L376.98 68.3691L477.105 72.5487ZM478.124 71.2222L482.045 71.3859L481.539 69.7389L477.582 69.6869L478.124 71.2222ZM476.089 69.6673L476.615 71.159L424.874 68.9964L476.089 69.6673ZM477.089 68.2891L481.11 68.3418L478.716 60.5523L474.403 60.6765L477.089 68.2891ZM472.931 60.7188L475.595 68.2696L376.389 66.9706L336.914 65.3212L360.823 63.9475L472.931 60.7188ZM473.924 59.3196L478.299 59.194L477.697 57.2331L473.278 57.4869L473.924 59.3196ZM471.82 57.5707L472.452 59.3619L408.792 61.1918L471.82 57.5707ZM472.781 56.0797L477.263 55.8221L474.764 47.6869L469.988 48.1628L472.781 56.0797ZM468.552 48.3059L471.324 56.1635L358.878 62.6266L324.468 63.6159L323.052 63.3541L342.253 60.886L468.552 48.3059ZM469.515 46.8226L474.35 46.3412L473.63 43.9974L468.74 44.6261L469.515 46.8226ZM467.318 44.8091L468.079 46.9657L390.193 54.7235L467.318 44.8091ZM468.272 43.2985L473.22 42.6622L470.564 34.0173L465.315 34.9173L468.272 43.2985ZM463.912 35.1574L466.849 43.4815L342.42 59.4816L316.219 62.0914L312.766 61.4533L325.805 58.8323L463.912 35.1574ZM464.845 33.5869L470.152 32.6768L469.324 29.9829L463.955 31.0623L464.845 33.5869ZM462.566 31.3416L463.443 33.8271L373.326 49.2802L462.566 31.3416ZM463.485 29.7302L468.911 28.6393L466.103 19.4977L460.37 20.9017L463.485 29.7302ZM459.001 21.2368L462.096 30.0091L324.995 57.5676L307.746 60.5254L302.866 59.6237L307.753 58.2769L459.001 21.2368ZM459.895 19.5556L465.685 18.1373L464.728 15.0234L458.866 16.6386L459.895 19.5556ZM457.51 17.0122L458.526 19.8907L355.309 45.1732L457.51 17.0122ZM458.402 15.324L464.319 13.6937L461.335 3.98031L455.105 5.97989L458.402 15.324ZM453.769 6.40892L457.046 15.6975L307.893 56.787L299.132 58.9332L293.416 57.8769L453.769 6.40892ZM453.294 5.06319L452.137 1.78454L337.35 42.281L453.294 5.06319ZM286.609 60.1819L290.394 58.847L290.659 58.7618L295.887 59.7281L291.153 60.8877L286.609 60.1819ZM278.912 62.8978L282.852 61.5077L286.804 61.9528L282.36 63.0416L278.912 62.8978ZM272.654 65.1054L275.42 64.1297L276.833 64.1887L277.461 64.2414L274.105 65.0635L272.654 65.1054ZM484.075 92.3033L484.381 93.1708L456.528 88.0228L484.075 92.3033ZM216.797 83.3391L197.638 88.6183L100.828 119.691L99.9079 124.582L216.797 83.3391ZM98.3725 125.124L99.3027 120.181L92.3691 122.406L91.6248 127.505L98.3725 125.124ZM90.1454 128.027L90.897 122.879L89.7417 123.25L89.1391 128.382L90.1454 128.027ZM88.9593 129.912L89.9195 129.573L85.2176 161.778L88.9593 129.912ZM87.6664 128.901L88.2747 123.721L81.0874 126.027L80.6818 131.366L87.6664 128.901ZM80.5673 132.873L87.4868 130.432L78.0102 211.143L72.2328 250.712L73.285 228.702L80.5673 132.873ZM79.2279 131.879L79.6369 126.493L78.1483 126.971L77.8912 132.35L79.2279 131.879ZM77.8198 133.842L79.1134 133.386L75.6812 178.579L77.8198 133.842ZM76.494 132.843L76.7534 127.419L69.1928 129.845L69.1554 135.433L76.494 132.843ZM69.1457 136.903L76.4227 134.335L71.9715 227.425L68.928 267.502L68.4293 244.179L69.1457 136.903ZM67.8018 135.91L67.8397 130.28L66.0062 130.868L66.1267 136.501L67.8018 135.91ZM66.1578 137.956L67.7918 137.38L67.398 195.955L66.1578 137.956ZM64.7599 136.984L64.6384 131.307L56.7666 133.834L57.1318 139.675L64.7599 136.984ZM57.2215 141.109L64.7911 138.439L67.0693 244.881L66.804 284.343L64.787 262.114L57.2215 141.109ZM55.7373 140.167L55.3693 134.282L53.2494 134.963L53.7841 140.856L55.7373 140.167ZM53.913 142.276L55.827 141.601L60.2065 211.634L53.913 142.276ZM52.3987 141.345L51.8597 135.408L43.5858 138.064L44.3937 144.17L52.3987 141.345ZM44.579 145.569L52.5276 142.765L63.3643 262.132L65.5238 296.663L65.324 298.032L62.1385 278.254L44.579 145.569ZM43.0334 144.65L42.2199 138.503L39.7578 139.293L40.7503 145.455L43.0334 144.65ZM40.9736 146.841L43.2186 146.049L54.1543 228.68L40.9736 146.841ZM39.4274 145.922L38.4287 139.719L29.6395 142.541L30.937 148.918L39.4274 145.922ZM31.2151 150.284L39.6506 147.308L60.628 277.595L64.2794 305.185L63.7816 308.595L60.9747 296.543L31.2151 150.284ZM29.608 149.386L28.3025 142.97L25.4219 143.894L26.9218 150.334L29.608 149.386ZM27.237 151.688L29.886 150.753L49.6919 248.1L27.237 151.688ZM25.5904 150.804L24.0811 144.325L14.7651 147.315L16.6074 153.973L25.5904 150.804ZM16.9765 155.308L25.9057 152.157L59.6015 296.806L62.9582 313.305L62.102 317.854L60.5724 312.876L16.9765 155.308ZM15.2955 154.436L13.4423 147.739L10.1589 148.793L12.2255 155.519L15.2955 154.436ZM12.6314 156.84L15.6646 155.77L46.1322 265.877L12.6314 156.84ZM11.3092 157.307L1.78456 160.667L60.4128 326.83L61.4595 321.268L59.3938 313.803L11.3092 157.307ZM61.4679 334.061L37.049 501.317L43.7933 502.563L63.051 338.548L61.4679 334.061ZM63.4246 335.366L61.9058 331.062L62.6877 325.706L64.0014 330.454L63.4246 335.366ZM64.6034 342.948L52.3539 504.146L58.6845 505.316L66.2279 347.552L64.6034 342.948ZM66.4043 343.811L64.8686 339.459L65.2185 334.853L66.435 339.248L66.4043 343.811ZM67.7108 351.755L66.6754 506.792L72.6985 507.906L69.5581 361.178L69.2399 356.089L67.7108 351.755ZM68.9175 350.934L67.7386 347.593L67.7609 344.258L67.7698 344.073L68.6983 347.428L68.9175 350.934ZM70.9687 360.989L80.2414 509.299L85.8983 510.345L73.812 377.214L72.0827 364.146L70.9687 360.989ZM71.1845 357.359L70.8278 356.349L70.7996 355.022L70.9444 355.545L71.1845 357.359ZM74.7248 371.635L74.9632 372.311L79.348 393.862L98.4772 512.67L93.0282 511.663L75.2221 377.116L74.7248 371.635ZM85.7254 402.813L93.6053 425.147L121.823 516.985L116.788 516.054L87.1572 408.961L85.7254 402.813ZM83.5115 392.296L82.8182 390.331L82.5376 389.127L83.5115 392.296ZM104.922 457.222L123.372 517.271L126.3 517.812L104.922 457.222ZM126.842 519.349L123.84 518.794L124.15 519.803L127.167 520.272L126.842 519.349ZM127.693 521.761L124.604 521.282L126.782 528.37L130.159 528.75L127.693 521.761ZM131.719 528.926L129.278 522.008L204.174 533.641L243.119 540.839L220.947 538.981L131.719 528.926ZM130.69 530.256L127.242 529.867L127.64 531.163L131.113 531.454L130.69 530.256ZM132.657 531.583L132.251 530.432L170.91 534.789L132.657 531.583ZM131.62 532.892L128.08 532.596L130.357 540.006L134.187 540.166L131.62 532.892ZM135.708 540.229L133.164 533.021L219.143 540.225L259.309 544.752L237.09 544.461L135.708 540.229ZM134.688 541.588L130.793 541.426L131.3 543.075L135.231 543.127L134.688 541.588ZM136.737 543.146L136.21 541.652L188.053 543.819L136.737 543.146ZM135.724 544.524L131.729 544.471L134.111 552.226L138.398 552.102L135.724 544.524ZM139.882 552.059L137.23 544.543L236.51 545.844L276.316 547.507L254.56 548.757L139.882 552.059ZM138.889 553.495L134.54 553.619L135.153 555.617L139.549 555.364L138.889 553.495ZM141.018 555.28L140.373 553.452L205.35 551.584L141.018 555.28ZM140.02 556.7L135.565 556.956L138.074 565.123L142.825 564.65L140.02 556.7ZM144.273 564.505L141.489 556.615L252.731 550.222L288.346 549.198L289.714 549.451L270.15 551.967L144.273 564.505ZM143.308 566.019L138.497 566.499L139.207 568.809L144.072 568.183L143.308 566.019ZM145.506 567.999L144.756 565.875L221.257 558.256L145.506 567.999ZM144.553 569.547L139.628 570.18L142.275 578.797L147.5 577.901L144.553 569.547ZM148.914 577.659L145.987 569.363L270.503 553.351L296.698 550.742L300.061 551.363L287.042 553.98L148.914 577.659ZM147.97 579.231L142.687 580.137L143.515 582.831L148.861 581.757L147.97 579.231ZM150.261 581.475L149.383 578.989L239.529 563.531L150.261 581.475ZM149.331 583.089L143.928 584.175L146.734 593.31L152.443 591.911L149.331 583.089ZM153.824 591.573L150.731 582.808L287.861 555.243L305.08 552.29L309.946 553.19L305.057 554.537L153.824 591.573ZM152.907 593.226L147.142 594.638L148.109 597.783L153.948 596.174L152.907 593.226ZM155.314 595.798L154.287 592.888L258.615 567.334L155.314 595.798ZM155.77 597.09L305.218 555.919L313.601 553.866L319.485 554.953L159.07 606.441L155.77 597.09ZM154.403 597.466L157.723 606.874L151.514 608.866L148.51 599.09L154.403 597.466ZM128.753 520.518L128.445 519.645L156.458 524.823L128.753 520.518ZM91.3989 129.052L98.0766 126.696L74.8356 250.191L79.4505 210.891L91.3989 129.052ZM494.553 585.875L325.186 554.572L329.664 553.135L495.857 578.95L494.553 585.875ZM497.513 570.149L334.048 551.727L338.68 550.24L498.736 563.651L497.513 570.149ZM500.28 555.447L342.923 548.879L347.198 547.506L352.285 547.36L501.435 549.313L500.28 555.447ZM502.885 541.605L352.05 545.949L355.305 544.904L369.025 543.538L503.982 535.781L502.885 541.605ZM363.504 542.272L362.648 542.547L367.544 542.266L505.344 528.54L506.384 523.019L384.031 538.752L363.504 542.272ZM416.482 525.267L394.029 532.474L400.284 531.217L509.893 504.374L510.854 499.268L416.482 525.267ZM381.963 534.9L384.665 534.032L380.313 535.231L381.963 534.9ZM511.139 497.752L448.004 515.149L511.714 494.698L511.139 497.752ZM512.622 497.344L513.211 494.218L520.179 491.981L519.68 495.399L512.622 497.344ZM521.172 494.988L521.682 491.499L522.922 491.101L522.509 494.619L521.172 494.988ZM523.941 494.225L524.362 490.639L531.644 488.301L531.349 492.183L523.941 494.225ZM532.76 491.795L533.06 487.847L534.591 487.355L534.401 491.342L532.76 491.795ZM535.829 490.949L536.023 486.896L543.575 484.472L543.546 488.823L535.829 490.949ZM544.968 488.431L544.997 484.015L546.839 483.424L546.935 487.889L544.968 488.431ZM548.337 487.502L548.24 482.974L556.202 480.418L556.505 485.252L548.337 487.502ZM557.843 484.883L557.537 479.99L559.694 479.297L560.143 484.249L557.843 484.883ZM561.502 483.875L561.047 478.863L569.42 476.175L570.125 481.499L561.502 483.875ZM574.194 480.377L571.49 481.123L570.778 475.739L573.316 474.925L574.194 480.377ZM575.532 480.009L574.645 474.498L583.489 471.659L584.675 477.489L575.532 480.009ZM586.024 477.118L584.826 471.23L587.713 470.303L589.103 476.27L586.024 477.118ZM590.465 475.894L589.062 469.871L598.428 466.864L600.185 473.216L590.465 475.894ZM549.521 291.003L548.309 287.057L548.049 290.473L548.951 294.906L549.521 291.003ZM547.209 283.477L546.363 280.725L546.354 282.139L547.05 285.563L547.209 283.477ZM495.608 95.2454L490.524 94.3057L490.201 93.2553L495.276 94.0439L495.608 95.2454ZM494.857 92.5302L489.734 91.7343L487.534 84.5738L492.821 85.1697L494.857 92.5302ZM492.429 83.7531L487.097 83.1523L486.673 81.7716L492.004 82.2185L492.429 83.7531ZM491.61 80.7924L486.233 80.3421L483.926 72.8336L489.471 73.065L491.61 80.7924ZM489.088 71.6802L483.5 71.4466L482.981 69.7577L488.577 69.8311L489.088 71.6802ZM488.19 68.4347L482.552 68.3607L480.14 60.5111L485.952 60.3439L488.19 68.4347ZM485.576 58.9849L479.723 59.1531L479.108 57.1521L484.976 56.8149L485.576 58.9849ZM484.585 55.4015L478.675 55.7411L476.157 47.5484L482.244 46.942L484.585 55.4015ZM481.87 45.5921L475.744 46.2023L475.012 43.8201L481.161 43.0294L481.87 45.5921ZM480.79 41.6886L474.601 42.4845L471.928 33.7834L478.301 32.6908L480.79 41.6886ZM477.928 31.3433L471.516 32.4429L470.677 29.711L477.118 28.4162L477.928 31.3433ZM476.744 27.0649L470.264 28.3673L467.438 19.1706L474.108 17.5372L476.744 27.0649ZM473.729 16.167L467.02 17.8102L466.052 14.6586L472.797 12.7997L473.729 16.167ZM118.292 26.9039L287.707 58.2162L283.222 59.6558L116.988 33.8337L118.292 26.9039ZM115.333 42.629L278.857 61.0571L274.138 62.5718L114.103 49.1632L115.333 42.629ZM112.565 57.3323L269.99 63.9032L265.615 65.3076L260.545 65.4535L111.405 63.5L112.565 57.3323ZM260.363 66.8411L260.819 66.847L257.376 67.9523L245.314 69.1538L108.864 76.9961L109.96 71.173L260.363 66.8411ZM249.28 70.5512L250.021 70.3131L244.328 70.6402L107.495 84.2701L106.45 89.8251L228.122 74.1793L249.28 70.5512ZM196.91 87.3616L218.744 80.3533L212.394 81.6296L102.947 108.433L101.992 113.511L196.91 87.3616ZM231.174 77.8545L229.683 78.3331L232.085 77.6712L231.174 77.8545ZM101.701 115.053L164.846 97.6541L101.126 118.108L101.701 115.053ZM100.189 115.47L99.6007 118.598L92.5969 120.846L93.0964 117.424L100.189 115.47ZM91.6345 117.827L91.1248 121.319L89.9232 121.704L90.3364 118.185L91.6345 117.827ZM88.8775 118.587L88.4563 122.175L81.2034 124.503L81.4983 120.62L88.8775 118.587ZM80.0527 121.019L79.7526 124.969L78.2204 125.461L78.4112 121.471L80.0527 121.019ZM77.0195 121.854L76.8255 125.908L69.2027 128.355L69.2319 124L77.0195 121.854ZM67.8793 124.373L67.8496 128.79L65.9747 129.392L65.8791 124.924L67.8793 124.373ZM64.5098 125.302L64.6068 129.831L56.6755 132.377L56.3734 127.543L64.5098 125.302ZM54.972 127.93L55.2782 132.825L53.1184 133.518L52.6688 128.564L54.972 127.93ZM51.2733 128.949L51.7286 133.965L43.3971 136.639L42.6923 131.313L51.2733 128.949ZM41.3185 131.692L42.0313 137.077L39.5303 137.88L38.6519 132.427L41.3185 131.692ZM37.3139 132.795L38.2013 138.307L29.3558 141.146L28.1693 135.315L37.3139 132.795ZM26.8207 135.687L28.0188 141.575L25.0999 142.512L23.7099 136.544L26.8207 135.687ZM22.3554 136.917L23.7591 142.943L14.3877 145.951L12.6297 139.597L22.3554 136.917ZM63.2761 321.676L64.509 325.688L64.7723 322.221L63.8548 317.712L63.2761 321.676ZM65.6362 329.357L66.483 332.113L66.4926 330.677L65.7961 327.253L65.6362 329.357ZM117.207 517.568L122.291 518.508L122.616 519.564L117.541 518.776L117.207 517.568ZM117.948 520.248L123.07 521.043L125.269 528.199L119.983 527.603L117.948 520.248ZM120.396 529.096L125.729 529.697L126.141 531.038L120.81 530.591L120.396 529.096ZM121.205 532.02L126.581 532.47L128.878 539.944L123.334 539.713L121.205 532.02ZM123.726 541.13L129.314 541.364L129.834 543.056L124.238 542.983L123.726 541.13ZM124.624 544.378L130.263 544.452L132.664 552.267L126.853 552.435L124.624 544.378ZM127.239 553.829L133.092 553.661L133.718 555.699L127.85 556.036L127.239 553.829ZM128.221 557.378L134.13 557.038L136.657 565.264L130.571 565.87L128.221 557.378ZM130.953 567.25L137.08 566.64L137.802 568.99L131.653 569.781L130.953 567.25ZM132.034 571.157L138.223 570.361L140.889 579.035L134.516 580.127L132.034 571.157ZM134.888 581.475L141.3 580.375L142.14 583.108L135.699 584.402L134.888 581.475ZM136.072 585.754L142.553 584.451L145.377 593.642L138.707 595.276L136.072 585.754ZM146.763 598.154L145.785 594.971L139.077 596.614L140.018 600.013L146.763 598.154ZM316.978 551.252L313.063 552.331L309.106 551.6L313.453 550.855L316.978 551.252ZM323.427 549.475L320.709 550.224L318.549 549.981L321.875 549.411L323.427 549.475ZM512.337 498.86L511.367 504.013L518.684 502.221L519.461 496.897L512.337 498.86ZM520.954 496.486L520.169 501.857L521.703 501.482L522.334 496.106L520.954 496.486ZM523.766 495.711L523.13 501.132L530.812 499.251L531.238 493.653L523.766 495.711ZM532.648 493.264L532.22 498.906L534.061 498.455L534.331 492.801L532.648 493.264ZM535.759 492.407L535.487 498.106L543.497 496.144L543.536 490.265L535.759 492.407ZM544.958 489.873L544.918 495.796L547.092 495.264L546.965 489.32L544.958 489.873ZM548.368 488.934L548.496 494.921L556.979 492.843L556.593 486.668L548.368 488.934ZM557.931 486.299L558.32 492.515L560.837 491.898L560.271 485.655L557.931 486.299ZM561.629 485.28L562.2 491.564L571.166 489.369L570.308 482.889L561.629 485.28ZM571.674 482.513L572.537 489.033L575.472 488.314L574.417 481.758L571.674 482.513ZM575.755 481.389L576.817 487.985L586.336 485.654L584.953 478.855L575.755 481.389ZM586.301 478.484L587.693 485.321L591.021 484.506L589.418 477.625L586.301 478.484ZM533.173 225.678L526.877 202.924L502.411 97.8992L507.636 98.8648L532.164 219.412L533.173 225.678ZM534.739 236.674L535.23 238.448L535.404 239.528L534.739 236.674ZM517.798 170.113L500.914 97.6224L497.568 97.0038L517.798 170.113ZM497.16 95.5324L500.574 96.1632L500.261 94.8185L496.815 94.283L497.16 95.5324ZM496.396 92.7693L499.911 93.3153L498.154 85.7708L494.34 85.3411L496.396 92.7693ZM493.948 83.9241L497.826 84.3612L497.432 82.6733L493.511 82.3448L493.948 83.9241ZM493.117 80.9188L497.101 81.2525L495.251 73.3062L490.961 73.1272L493.117 80.9188ZM490.577 71.7423L494.929 71.9242L494.459 69.9082L490.054 69.8506L490.577 71.7423ZM489.668 68.4539L494.134 68.5125L492.19 60.1641L487.412 60.3016L489.668 68.4539ZM487.036 58.9426L491.873 58.8037L491.325 56.4501L486.424 56.7318L487.036 58.9426ZM486.033 55.3184L490.995 55.0332L488.955 46.2735L483.675 46.7992L486.033 55.3184ZM483.302 45.4496L488.639 44.918L487.995 42.1511L482.582 42.8468L483.302 45.4496ZM482.211 41.506L487.681 40.8026L485.504 31.4561L479.705 32.4503L482.211 41.506ZM479.332 31.1024L485.188 30.0984L484.452 26.942L478.511 28.1362L479.332 31.1024ZM478.137 26.7849L484.135 25.5791L481.822 15.6483L475.485 17.2003L478.137 26.7849ZM295.748 61.5849L299.837 60.458L303.833 61.1967L299.26 61.9807L295.748 61.5849ZM289.394 63.3356L292.204 62.5613L293.869 62.7491L294.346 62.8234L290.974 63.4015L289.394 63.3356ZM100.48 113.927L101.444 108.801L94.0926 110.601L93.319 115.9L100.48 113.927ZM91.8571 116.302L92.6375 110.958L91.1421 111.324L90.5141 116.673L91.8571 116.302ZM89.055 117.075L89.6884 111.68L82.0353 113.554L81.612 119.125L89.055 117.075ZM80.1663 119.524L80.5928 113.907L78.7512 114.358L78.482 119.987L80.1663 119.524ZM77.0903 120.371L77.3616 114.698L69.2808 116.677L69.2417 122.533L77.0903 120.371ZM67.8892 122.905L67.9288 117.009L65.7214 117.549L65.848 123.468L67.8892 122.905ZM64.4787 123.845L64.3511 117.885L55.8989 119.955L56.2833 126.103L64.4787 123.845ZM54.8819 126.489L54.4948 120.298L51.9748 120.916L52.539 127.134L54.8819 126.489ZM51.1435 127.519L50.5752 121.258L41.6508 123.444L42.5051 129.898L51.1435 127.519ZM41.1312 130.277L40.2716 123.782L37.3739 124.491L38.4258 131.023L41.1312 130.277ZM37.0877 131.391L36.0298 124.821L26.5084 127.152L27.8866 133.926L37.0877 131.391ZM26.5381 134.297L25.152 127.484L21.7916 128.307L23.3888 135.165L26.5381 134.297ZM79.6594 387.04L85.7418 409.021L110.4 514.874L105.203 513.913L80.6896 393.437L79.6594 387.04ZM78.113 376.273L77.6636 374.648L77.5044 373.66L78.113 376.273ZM94.7716 441.654L111.889 515.149L115.282 515.776L94.7716 441.654ZM115.701 517.29L112.239 516.65L112.553 518.001L116.048 518.544L115.701 517.29ZM116.455 520.016L112.894 519.463L114.65 527.002L118.509 527.437L116.455 520.016ZM118.922 528.929L114.995 528.487L115.38 530.136L119.347 530.468L118.922 528.929ZM119.743 531.897L115.711 531.559L117.554 539.472L121.889 539.652L119.743 531.897ZM122.281 541.07L117.883 540.886L118.354 542.906L122.805 542.964L122.281 541.07ZM123.191 544.359L118.678 544.3L120.615 552.614L125.437 552.476L123.191 544.359ZM125.823 553.87L120.94 554.01L121.497 556.401L126.445 556.117L125.823 553.87ZM126.816 557.459L121.81 557.746L123.858 566.539L129.182 566.009L126.816 557.459ZM129.564 567.388L124.181 567.924L124.818 570.66L130.275 569.958L129.564 567.388ZM130.655 571.334L125.14 572.043L127.31 581.362L133.153 580.361L130.655 571.334ZM133.526 581.708L127.627 582.72L128.362 585.877L134.347 584.674L133.526 581.708ZM134.721 586.026L128.679 587.24L130.991 597.165L137.371 595.603L134.721 586.026ZM400.014 532.699L377.966 538.1L384.825 537.218L507.675 516.158L508.672 510.858L400.014 532.699ZM508.952 509.373L432.527 524.735L509.614 505.853L508.952 509.373ZM510.414 509.079L511.089 505.492L518.47 503.684L517.903 507.574L510.414 509.079ZM519.378 507.277L519.956 503.32L521.533 502.934L521.062 506.938L519.378 507.277ZM522.482 506.653L522.959 502.584L530.703 500.688L530.37 505.067L522.482 506.653ZM531.773 504.785L532.111 500.343L533.992 499.882L533.777 504.383L531.773 504.785ZM535.2 504.096L535.419 499.533L543.487 497.556L543.455 502.437L535.2 504.096ZM544.875 502.152L544.909 497.208L547.122 496.666L547.229 501.679L544.875 502.152ZM557.404 499.633L548.634 501.396L548.526 496.322L557.066 494.23L557.404 499.633ZM558.748 499.363L558.407 493.902L560.962 493.276L561.465 498.817L558.748 499.363ZM562.833 498.542L562.325 492.942L571.347 490.732L572.133 496.673L562.833 498.542ZM573.511 496.395L572.717 490.397L575.69 489.668L576.672 495.76L573.511 496.395ZM578.025 495.488L577.035 489.339L586.609 486.994L587.932 493.497L578.025 495.488ZM548.147 300.42L547.504 297.659L547.396 299.072L547.847 302.474L548.147 300.42ZM507.341 97.4136L502.072 96.4397L501.748 95.0492L507.027 95.8696L507.341 97.4136ZM506.722 94.3734L501.397 93.5464L499.625 85.9366L505.132 86.5573L506.722 94.3734ZM504.846 85.1526L499.296 84.527L498.893 82.7955L504.461 83.2623L504.846 85.1526ZM504.173 81.845L498.562 81.3747L496.697 73.3663L502.497 73.6085L504.173 81.845ZM502.216 72.2286L496.375 71.9846L495.895 69.9271L501.764 70.0039L502.216 72.2286ZM501.48 68.6089L495.57 68.5314L493.612 60.1232L499.717 59.9473L501.48 68.6089ZM499.44 58.5862L493.295 58.7628L492.737 56.3691L498.917 56.0141L499.44 58.5862ZM498.628 54.5944L492.407 54.9518L490.353 46.1342L496.777 45.4943L498.628 54.5944ZM496.5 44.135L490.037 44.7787L489.384 41.9727L495.89 41.1363L496.5 44.135ZM495.614 39.7825L489.069 40.6242L486.879 31.2204L493.637 30.0618L495.614 39.7825ZM493.359 28.6972L486.562 29.8628L485.818 26.6673L492.666 25.2908L493.359 28.6972ZM211.886 80.3037L234.733 74.7075L228.595 75.4964L105.164 96.6557L104.166 101.956L211.886 80.3037ZM103.887 103.441L179.373 88.2675L103.233 106.918L103.887 103.441ZM102.397 103.741L101.729 107.286L94.3113 109.103L94.8734 105.253L102.397 103.741ZM93.4279 105.544L92.8562 109.459L91.3168 109.836L91.782 105.874L93.4279 105.544ZM90.3359 106.165L89.863 110.192L82.1472 112.082L82.4767 107.745L90.3359 106.165ZM81.0387 108.034L80.7045 112.436L78.8212 112.897L79.0343 108.437L81.0387 108.034ZM77.6477 108.716L77.4314 113.237L69.2905 115.231L69.3228 110.389L77.6477 108.716ZM67.9714 110.661L67.9384 115.563L65.6907 116.113L65.5844 111.141L67.9714 110.661ZM64.2127 111.417L64.3204 116.449L55.8101 118.534L55.4749 113.173L64.2127 111.417ZM54.0669 113.456L54.4059 118.877L51.8467 119.504L51.3475 114.003L54.0669 113.456ZM49.9421 114.285L50.447 119.847L41.466 122.047L40.685 116.146L49.9421 114.285ZM39.2979 116.425L40.0867 122.385L37.1505 123.104L36.1758 117.052L39.2979 116.425ZM34.8229 117.324L35.8065 123.433L26.229 125.779L24.914 119.316L34.8229 117.324ZM65.3091 315.154L65.4147 313.763L64.9552 310.291L64.8797 310.692L64.6448 312.302L65.3091 315.154ZM105.507 515.406L110.75 516.375L111.075 517.771L105.822 516.955L105.507 515.406ZM106.118 518.41L111.416 519.233L113.187 526.837L107.707 526.22L106.118 518.41ZM108.008 527.699L113.533 528.322L113.927 530.014L108.385 529.55L108.008 527.699ZM108.673 530.97L114.259 531.437L116.116 539.412L110.342 539.171L108.673 530.97ZM110.63 540.583L116.446 540.826L116.926 542.887L111.083 542.81L110.63 540.583ZM111.367 544.205L117.251 544.282L119.201 552.655L113.121 552.83L111.367 544.205ZM113.406 554.227L119.526 554.051L120.093 556.482L113.936 556.836L113.406 554.227ZM114.211 558.183L120.406 557.827L122.468 566.677L116.069 567.315L114.211 558.183ZM116.351 568.704L122.79 568.063L123.437 570.838L116.955 571.671L116.351 568.704ZM117.237 573.059L123.759 572.221L125.943 581.596L119.21 582.751L117.237 573.059ZM127.004 586.15L126.259 582.954L119.487 584.116L120.18 587.522L127.004 586.15ZM306.493 550.07L303.78 550.616L301.743 550.239L305.06 549.909L306.493 550.07ZM510.134 510.564L509.128 515.909L516.88 514.58L517.688 509.046L510.134 510.564ZM519.163 508.749L518.349 514.328L520.233 514.005L520.891 508.402L519.163 508.749ZM522.31 508.117L521.647 513.763L529.816 512.362L530.26 506.519L522.31 508.117ZM531.663 506.237L531.216 512.122L533.425 511.743L533.708 505.825L531.663 506.237ZM535.131 505.539L534.846 511.5L543.404 510.033L543.445 503.868L535.131 505.539ZM544.866 503.583L544.824 509.79L547.393 509.349L547.26 503.101L544.866 503.583ZM548.665 502.819L548.8 509.108L557.899 507.548L557.492 501.045L548.665 502.819ZM558.837 500.774L559.246 507.317L562.19 506.813L561.592 500.22L558.837 500.774ZM562.961 499.945L563.563 506.577L573.224 504.921L572.317 498.065L562.961 499.945ZM573.695 497.788L574.608 504.684L578.015 504.1L576.895 497.145L573.695 497.788ZM526.74 185.733L512.906 99.8387L509.122 99.1392L526.74 185.733ZM508.826 97.6884L512.674 98.3994L512.401 96.7046L508.503 96.099L508.826 97.6884ZM508.199 94.6028L512.162 95.2182L510.871 87.2042L506.595 86.7224L508.199 94.6028ZM506.31 85.3177L510.646 85.8064L510.315 83.7527L505.916 83.3841L506.31 85.3177ZM505.628 81.9671L510.088 82.3407L508.723 73.8683L503.939 73.6686L505.628 81.9671ZM503.659 72.2886L508.501 72.4911L508.114 70.0869L503.198 70.0224L503.659 72.2886ZM502.914 68.6274L507.889 68.6927L506.45 59.7536L501.139 59.9065L502.914 68.6274ZM500.863 58.5454L506.23 58.3911L505.784 55.6196L500.331 55.9328L500.863 58.5454ZM500.042 54.5134L505.555 54.1964L504.037 44.771L498.179 45.3543L500.042 54.5134ZM497.902 43.9953L503.817 43.4061L503.298 40.184L497.284 40.9572L497.902 43.9953ZM497.009 39.6031L503.079 38.8225L501.452 28.722L495.019 29.8248L497.009 39.6031ZM307.737 62.9362L306.233 62.7665L309.153 62.1797L311.317 62.5798L307.737 62.9362ZM102.676 102.256L103.682 96.9095L95.8966 98.2445L95.0883 103.781L102.676 102.256ZM93.6428 104.072L94.4576 98.4909L92.6119 98.8075L91.9538 104.411L93.6428 104.072ZM90.5076 104.702L91.1707 99.0543L83.0311 100.45L82.587 106.294L90.5076 104.702ZM81.1491 106.583L81.5961 100.696L79.3862 101.075L79.1033 106.994L81.1491 106.583ZM77.7166 107.273L78.0017 101.312L69.3736 102.791L69.3324 108.958L77.7166 107.273ZM67.981 109.23L68.0228 103.023L65.4203 103.469L65.5539 109.718L67.981 109.23ZM64.1822 109.993L64.0476 103.704L54.9801 105.258L55.3867 111.762L64.1822 109.993ZM53.9786 112.045L53.5694 105.5L50.6219 106.005L51.2202 112.599L53.9786 112.045ZM49.8147 112.881L49.2124 106.247L39.5932 107.896L40.5007 114.754L49.8147 112.881ZM39.1136 115.032L38.2008 108.135L34.8327 108.712L35.9529 115.668L39.1136 115.032ZM86.1143 427.118L99.9363 512.94L103.717 513.639L86.1143 427.118ZM104.021 515.131L100.175 514.421L100.448 516.12L104.345 516.725L104.021 515.131ZM104.641 518.181L100.681 517.566L101.971 525.573L106.243 526.055L104.641 518.181ZM106.544 527.534L102.208 527.045L102.532 529.059L106.93 529.428L106.544 527.534ZM107.219 530.848L102.76 530.474L104.119 538.911L108.9 539.111L107.219 530.848ZM109.187 540.523L104.346 540.321L104.734 542.727L109.649 542.791L109.187 540.523ZM109.932 544.186L104.958 544.121L106.392 553.024L111.699 552.871L109.932 544.186ZM111.984 554.268L106.617 554.422L107.07 557.23L112.522 556.917L111.984 554.268ZM112.797 558.264L107.287 558.581L108.81 568.038L114.666 567.455L112.797 558.264ZM114.949 568.844L109.035 569.433L109.549 572.624L115.561 571.851L114.949 568.844ZM115.843 573.238L109.774 574.019L111.396 584.09L117.827 582.988L115.843 573.238ZM519.59 99.6778L514.133 98.6693L513.853 96.9301L519.339 97.7826L519.59 99.6778ZM519.143 96.3028L513.614 95.4437L512.313 87.3668L518.046 88.013L519.143 96.3028ZM517.862 86.6198L512.088 85.9691L511.751 83.8732L517.563 84.3601L517.862 86.6198ZM517.376 82.9512L511.523 82.4607L510.149 73.928L516.216 74.1811L517.376 82.9512ZM516.034 72.806L509.928 72.5508L509.534 70.1054L515.687 70.1861L516.034 72.806ZM515.502 68.7925L509.309 68.7115L507.861 59.7127L514.276 59.528L515.502 68.7925ZM514.096 58.1649L507.641 58.3502L507.189 55.5387L513.699 55.1648L514.096 58.1649ZM513.51 53.7391L506.959 54.1158L505.432 44.6317L512.215 43.9562L513.51 53.7391ZM512.034 42.5875L505.213 43.2668L504.687 40.0052L511.575 39.12L512.034 42.5875ZM106.185 91.232L196.024 79.6834L105.435 95.2175L106.185 91.232ZM104.715 91.4208L103.953 95.4716L96.105 96.8174L96.7432 92.4457L104.715 91.4208ZM95.3134 92.6294L94.666 97.0642L92.7786 97.3878L93.3069 92.8873L95.3134 92.6294ZM91.8732 93.0717L91.3374 97.6349L83.1381 99.0407L83.5101 94.1468L91.8732 93.0717ZM82.0794 94.3308L81.7031 99.2868L79.4533 99.6726L79.694 94.6373L82.0794 94.3308ZM78.3124 94.815L78.0687 99.91L69.3829 101.4L69.4192 95.9583L78.3124 94.815ZM68.069 96.1318L68.032 101.631L65.3907 102.084L65.2712 96.4913L68.069 96.1318ZM63.8971 96.668L64.018 102.319L54.8942 103.884L54.5184 97.8737L63.8971 96.668ZM53.1039 98.0556L53.4834 104.126L50.4978 104.638L49.9375 98.4626L53.1039 98.0556ZM48.5222 98.6445L49.0882 104.88L39.4135 106.539L38.5386 99.9278L48.5222 98.6445ZM93.2232 513.136L98.7157 514.151L98.9964 515.894L93.4747 515.036L93.2232 513.136ZM93.6651 516.476L99.2292 517.34L100.529 525.411L94.7617 524.761L93.6651 516.476ZM94.9558 526.228L100.766 526.883L101.097 528.939L95.2497 528.449L94.9558 526.228ZM95.4365 529.86L101.325 530.354L102.693 538.851L96.5926 538.597L95.4365 529.86ZM96.779 540.005L102.92 540.261L103.314 542.709L97.126 542.628L96.779 540.005ZM97.3103 544.021L103.538 544.102L104.981 553.065L98.5319 553.25L97.3103 544.021ZM98.7171 554.649L105.206 554.463L105.665 557.311L99.1191 557.687L98.7171 554.649ZM99.2982 559.04L105.882 558.662L107.414 568.177L100.597 568.856L99.2982 559.04ZM100.782 570.255L107.639 569.573L108.159 572.803L101.237 573.693L100.782 570.255ZM506.661 521.547L417.457 533.02L507.404 517.596L506.661 521.547ZM508.102 521.362L508.858 517.347L516.671 516.007L516.039 520.341L508.102 521.362ZM517.498 520.153L518.14 515.756L520.066 515.425L519.542 519.89L517.498 520.153ZM520.949 519.709L521.48 515.183L529.709 513.772L529.34 518.63L520.949 519.709ZM530.735 518.451L531.109 513.531L533.358 513.146L533.119 518.144L530.735 518.451ZM534.537 517.961L534.779 512.902L543.395 511.425L543.359 516.827L534.537 517.961ZM544.778 516.644L544.815 511.181L547.423 510.734L547.542 516.289L544.778 516.644ZM548.949 516.108L548.829 510.493L557.984 508.923L558.358 514.897L548.949 516.108ZM559.709 514.724L559.332 508.692L562.314 508.181L562.871 514.317L559.709 514.724ZM564.249 514.14L563.687 507.945L573.404 506.279L574.274 512.85L564.249 514.14ZM507.825 522.833L506.778 528.397L514.982 527.58L515.825 521.805L507.825 522.833ZM517.284 521.617L516.435 527.435L518.682 527.211L519.37 521.349L517.284 521.617ZM520.777 521.168L520.084 527.072L528.764 526.207L529.229 520.081L520.777 521.168ZM530.625 519.902L530.157 526.068L532.753 525.81L533.05 519.59L530.625 519.902ZM534.468 519.407L534.169 525.669L543.306 524.759L543.349 518.266L534.468 519.407ZM544.768 518.083L544.724 524.617L547.714 524.319L547.573 517.722L544.768 518.083ZM548.98 517.542L549.122 524.179L558.877 523.207L558.447 516.324L548.98 517.542ZM559.798 516.15L560.231 523.072L563.635 522.733L563 515.738L559.798 516.15ZM534.494 201.583L525.473 102.161L521.233 101.378L534.494 201.583ZM521.043 99.9463L525.344 100.741L525.158 98.6867L520.787 98.0074L521.043 99.9463ZM520.591 96.5276L525.024 97.2164L524.253 88.7126L519.485 88.1753L520.591 96.5276ZM519.301 86.7821L524.127 87.326L523.906 84.8918L518.996 84.4806L519.301 86.7821ZM518.81 83.0713L523.778 83.4878L522.959 74.4624L517.641 74.2404L518.81 83.0713ZM517.459 72.8653L522.835 73.0901L522.58 70.2765L517.107 70.2049L517.459 72.8653ZM516.922 68.811L522.453 68.8836L521.585 59.3175L515.689 59.4872L516.922 68.811ZM515.508 58.124L521.461 57.953L521.169 54.7358L515.106 55.0841L515.508 58.124ZM514.917 53.6581L521.04 53.3062L520.12 43.169L513.615 43.8169L514.917 53.6581ZM91.5701 511.393L78.3251 411.314L87.3351 510.611L91.5701 511.393ZM63.8678 95.3006L54.4334 96.514L54.001 89.5982L63.7251 88.6298L63.8678 95.3006ZM68.0783 94.7591L65.2419 95.1239L65.1001 88.4927L68.1224 88.1917L68.0783 94.7591ZM78.3784 93.4347L69.4283 94.5856L69.4719 88.0573L78.6793 87.1403L78.3784 93.4347ZM82.1847 92.9453L79.76 93.257L80.059 87.0027L82.6556 86.7441L82.1847 92.9453ZM92.0369 91.6784L83.6155 92.7613L84.0835 86.602L92.7341 85.7401L92.0369 91.6784ZM95.5177 91.2309L93.4707 91.4941L94.163 85.598L96.3723 85.3777L95.5177 91.2309ZM104.98 90.014L96.9474 91.0469L97.7958 85.236L106.034 84.4156L104.98 90.014ZM53.0189 96.6959L49.8146 97.1078L49.1767 90.0789L52.5839 89.7396L53.0189 96.6959ZM91.7651 512.866L92.0224 514.811L87.6547 514.132L87.4678 512.072L91.7651 512.866ZM92.2128 516.25L87.7844 515.562L88.5556 524.062L93.3178 524.598L92.2128 516.25ZM93.5119 526.065L88.6881 525.521L88.9056 527.917L93.8114 528.329L93.5119 526.065ZM93.9982 529.74L89.0332 529.324L89.849 538.315L95.1625 538.537L93.9982 529.74ZM95.3489 539.945L89.9764 539.721L90.2322 542.537L95.7013 542.609L95.3489 539.945ZM95.8856 544.002L90.3584 543.929L91.2233 553.461L97.1152 553.291L95.8856 544.002ZM97.3002 554.69L91.3504 554.861L91.6457 558.116L97.7076 557.768L97.3002 554.69ZM99.1934 568.996L97.8867 559.121L91.7688 559.473L92.6916 569.643L99.1934 568.996ZM532.548 102.073L526.742 101L526.552 98.9032L532.406 99.8129L532.548 102.073ZM532.315 98.3488L526.419 97.4328L525.641 88.869L531.765 89.5591L532.315 98.3488ZM531.679 88.1771L525.515 87.4824L525.291 85.0077L531.513 85.5292L531.679 88.1771ZM531.426 84.1283L525.163 83.6037L524.339 74.5197L530.842 74.7913L531.426 84.1283ZM530.756 73.4211L524.214 73.1478L523.955 70.2946L530.566 70.3812L530.756 73.4211ZM530.479 68.9887L523.828 68.9014L522.955 59.2781L529.859 59.0791L530.479 68.9887ZM529.774 57.7138L522.831 57.9135L522.535 54.6572L529.558 54.2537L529.774 57.7138ZM108.593 78.4382L211.394 72.5323L107.762 82.8545L108.593 78.4382ZM107.143 78.5216L106.3 83.0001L98.0016 83.8264L98.7052 79.0065L107.143 78.5216ZM97.2906 79.0875L96.5781 83.9685L94.3281 84.1926L94.9114 79.2243L97.2906 79.0875ZM93.4895 79.306L92.899 84.3347L84.1898 85.2021L84.5991 79.8167L93.4895 79.306ZM83.1755 79.8984L82.7619 85.3446L80.1257 85.6071L80.391 80.0587L83.1755 79.8984ZM79.0141 80.1376L78.746 85.7443L69.4812 86.6673L69.5211 80.6832L79.0141 80.1376ZM68.1723 80.7607L68.1317 86.8017L65.0704 87.1064L64.9387 80.9464L68.1723 80.7607ZM63.5623 81.0253L63.6954 87.2436L53.9147 88.2176L53.5011 81.6034L63.5623 81.0253ZM80.3322 510.753L86.031 511.807L86.222 513.91L80.4737 513.017L80.3322 510.753ZM80.5627 514.44L86.3518 515.34L87.1289 523.901L81.1119 523.223L80.5627 514.44ZM81.2028 524.678L87.2614 525.36L87.4828 527.798L81.3659 527.286L81.2028 524.678ZM81.4537 528.689L87.6105 529.205L88.4323 538.256L82.0351 537.989L81.4537 528.689ZM82.1227 539.392L88.5598 539.661L88.8192 542.519L82.313 542.434L82.1227 539.392ZM82.3999 543.825L88.9455 543.911L89.8162 553.501L83.0171 553.697L82.3999 543.825ZM83.1048 555.098L89.9435 554.902L90.2425 558.197L83.3233 558.594L83.1048 555.098ZM504.239 534.413L401.216 540.331L505.072 529.987L504.239 534.413ZM505.661 534.331L506.506 529.844L514.771 529.021L514.067 533.848L505.661 534.331ZM515.511 533.765L516.225 528.876L518.513 528.648L517.929 533.626L515.511 533.765ZM519.324 533.546L519.916 528.508L528.655 527.638L528.245 533.033L519.324 533.546ZM529.634 532.953L530.048 527.499L532.685 527.237L532.419 532.794L529.634 532.953ZM533.832 532.712L534.101 527.096L543.296 526.18L543.256 532.171L533.832 532.712ZM544.674 532.089L544.715 526.038L547.744 525.737L547.876 531.905L544.674 532.089ZM549.286 531.824L549.152 525.596L558.966 524.619L559.38 531.245L549.286 531.824ZM505.404 535.699L504.3 541.564L512.977 541.314L513.867 535.213L505.404 535.699ZM515.311 535.13L514.415 541.273L517.04 541.197L517.769 534.989L515.311 535.13ZM519.164 534.909L518.431 541.157L527.648 540.891L528.142 534.392L519.164 534.909ZM529.531 534.313L529.034 540.851L532.038 540.765L532.354 534.15L529.531 534.313ZM533.767 534.069L533.449 540.724L543.201 540.443L543.247 533.524L533.767 534.069ZM544.665 533.443L544.618 540.403L548.055 540.303L547.905 533.257L544.665 533.443ZM541.169 218.243L538.739 104.613L534.008 103.738L541.169 218.243ZM533.92 102.326L538.709 103.211L538.657 100.784L533.776 100.026L533.92 102.326ZM533.684 98.5614L538.626 99.3291L538.433 90.3104L533.131 89.7127L533.684 98.5614ZM533.044 88.331L538.403 88.935L538.343 86.1014L532.876 85.6434L533.044 88.331ZM532.789 84.2425L538.313 84.7054L538.107 75.0946L532.201 74.8482L532.789 84.2425ZM532.116 73.4776L538.078 73.7269L538.009 70.4786L531.923 70.399L532.116 73.4776ZM531.836 69.0065L537.979 69.0868L537.76 58.8515L531.213 59.04L531.836 69.0065ZM78.8043 509.034L71.6448 394.543L74.0742 508.16L78.8043 509.034ZM79.0823 78.708L69.5306 79.2568L69.5768 72.3361L79.4006 72.0534L79.0823 78.708ZM83.2842 78.4665L80.4592 78.6288L80.7755 72.0136L83.7808 71.927L83.2842 78.4665ZM93.6581 77.8702L84.7081 78.3844L85.2019 71.8861L94.3918 71.6215L93.6581 77.8702ZM97.5006 77.6493L95.0801 77.7885L95.809 71.5807L98.3976 71.506L97.5006 77.6493ZM107.414 77.0795L98.9152 77.5679L99.8061 71.4655L108.518 71.2145L107.414 77.0795ZM68.182 79.3343L64.9083 79.5225L64.7575 72.4751L68.2287 72.3752L68.182 79.3343ZM78.8952 510.488L79.0394 512.794L74.1571 512.035L74.1051 509.603L78.8952 510.488ZM79.1284 514.218L74.1873 513.45L74.3802 522.464L79.6816 523.062L79.1284 514.218ZM79.7725 524.516L74.4111 523.912L74.471 526.708L79.9382 527.166L79.7725 524.516ZM80.026 528.569L74.5008 528.106L74.7056 537.684L80.6114 537.93L80.026 528.569ZM80.6991 539.333L74.7356 539.084L74.8051 542.335L80.8918 542.415L80.6991 539.333ZM80.9789 543.807L74.8347 543.726L75.0529 553.927L81.5999 553.738L80.9789 543.807ZM546.112 104.58L540.118 103.472L540.065 101.003L546.13 101.945L546.112 104.58ZM546.139 100.496L540.034 99.5476L539.839 90.4688L546.201 91.1859L546.139 100.496ZM546.211 89.815L539.81 89.0934L539.748 86.219L546.231 86.7622L546.211 89.815ZM546.24 85.3697L539.719 84.8234L539.512 75.1533L546.307 75.4367L546.24 85.3697ZM546.316 74.0711L539.482 73.7855L539.412 70.4971L546.339 70.5879L546.316 74.0711ZM111.144 64.8862L227.325 66.4082L110.224 69.7748L111.144 64.8862ZM109.712 64.8674L108.781 69.816L100.01 70.0684L100.787 64.7504L109.712 64.8674ZM99.3867 64.7323L98.6017 70.1089L95.9731 70.1843L96.6175 64.696L99.3867 64.7323ZM95.2071 64.6775L94.5557 70.2252L85.3078 70.4908L85.759 64.5535L95.2071 64.6775ZM84.3422 64.535L83.8868 70.5317L80.8422 70.6193L81.1351 64.4931L84.3422 64.535ZM79.7629 64.475L79.4672 70.6587L69.5861 70.9429L69.6302 64.3423L79.7629 64.475ZM66.6658 508.227L72.7294 509.348L72.7825 511.821L66.6481 510.868L66.6658 508.227ZM66.6388 512.278L72.8127 513.237L73.007 522.31L66.5766 521.585L66.6388 512.278ZM66.567 523.028L73.0379 523.757L73.0986 526.593L66.5468 526.044L66.567 523.028ZM66.5375 527.439L73.1285 527.991L73.3348 537.626L66.4714 537.34L66.5375 527.439ZM66.4621 538.738L73.3646 539.026L73.4352 542.317L66.4388 542.226L66.4621 538.738ZM501.695 547.928L385.492 546.405L502.616 543.038L501.695 547.928ZM503.099 547.946L504.03 542.998L512.767 542.746L511.991 548.063L503.099 547.946ZM513.421 548.081L514.206 542.705L516.872 542.628L516.227 548.118L513.421 548.081ZM517.611 548.136L518.263 542.589L527.539 542.322L527.088 548.26L517.611 548.136ZM528.47 548.278L528.925 542.282L531.97 542.194L531.677 548.321L528.47 548.278ZM533.085 548.339L533.381 542.154L543.191 541.872L543.147 548.471L533.085 548.339ZM275.747 544.968L273.843 544.943L271.902 544.724L271.125 544.581L275.747 544.968ZM502.839 549.332L501.677 555.505L510.849 555.888L511.789 549.449L502.839 549.332ZM513.218 549.467L512.272 555.947L515.293 556.073L516.064 549.505L513.218 549.467ZM517.448 549.523L516.672 556.131L526.459 556.539L526.983 549.648L517.448 549.523ZM528.365 549.666L527.838 556.597L531.274 556.74L531.61 549.708L528.365 549.666ZM546.673 234.622L552.765 107.205L547.536 106.239L546.673 234.622ZM547.546 104.845L552.831 105.821L552.965 103.007L547.564 102.168L547.546 104.845ZM547.573 100.719L553.034 101.567L553.491 92.0073L547.636 91.3475L547.573 100.719ZM547.645 89.977L553.556 90.643L553.712 87.3892L547.666 86.8827L547.645 89.977ZM547.676 85.4898L553.778 86.0012L554.267 75.7691L547.743 75.4968L547.676 85.4898ZM337.093 67.8465L339.364 67.8762L340.924 68.0521L342.065 68.2629L337.093 67.8465ZM65.3106 506.54L66.1789 377.35L60.0494 505.568L65.3106 506.54ZM95.3702 63.2902L85.8645 63.1656L86.3908 56.2396L96.1501 56.647L95.3702 63.2902ZM99.5892 63.3453L96.7804 63.3087L97.5558 56.7057L100.54 56.8303L99.5892 63.3453ZM109.973 63.4815L100.989 63.3638L101.934 56.8886L111.142 57.2729L109.973 63.4815ZM84.4476 63.147L81.2014 63.1045L81.5394 56.0372L84.9767 56.1806L84.4476 63.147ZM65.3009 507.975L65.283 510.656L59.8465 509.812L59.9813 506.992L65.3009 507.975ZM65.2734 512.066L59.7796 511.212L59.3228 520.767L65.2105 521.431L65.2734 512.066ZM65.2008 522.874L59.2541 522.204L59.1004 525.42L65.1803 525.929L65.2008 522.874ZM65.1709 527.325L59.0339 526.81L58.5464 537.009L65.104 537.282L65.1709 527.325ZM541.279 347.457L541.352 345.942L540.741 351.144L541.279 347.457ZM560.6 107.257L554.231 106.08L554.368 103.225L560.83 104.229L560.6 107.257ZM560.939 102.795L554.436 101.785L554.896 92.1654L561.689 92.931L560.939 102.795ZM561.792 91.5713L554.962 90.8015L555.119 87.5072L562.057 88.0884L561.792 91.5713ZM113.845 50.5317L244.03 61.44L112.824 55.9579L113.845 50.5317ZM112.432 50.4133L111.4 55.8982L102.136 55.5111L102.995 49.6223L112.432 50.4133ZM101.61 49.5064L100.742 55.4531L97.7176 55.3268L98.4324 49.24L101.61 49.5064ZM97.0335 49.1227L96.3121 55.2678L86.4957 54.8576L86.9954 48.2818L97.0335 49.1227ZM71.5495 265.008L71.4561 266.963L72.2445 260.247L71.5495 265.008ZM52.2462 505.562L58.6164 506.74L58.4796 509.599L52.0158 508.595L52.2462 505.562ZM51.9098 509.99L58.4127 511L57.9531 520.613L51.1607 519.848L51.9098 509.99ZM51.0519 521.279L57.8844 522.049L57.7287 525.305L50.7901 524.724L51.0519 521.279ZM498.994 562.279L368.823 551.372L500.015 556.854L498.994 562.279ZM500.38 562.396L501.412 556.912L510.643 557.298L509.784 563.183L500.38 562.396ZM511.198 563.302L512.066 557.357L515.127 557.485L514.413 563.571L511.198 563.302ZM515.785 563.687L516.506 557.543L526.351 557.954L525.852 564.53L515.785 563.687ZM259.165 542.184L257.324 542.029L252.858 541.204L259.165 542.184ZM500.122 563.767L498.892 570.305L508.585 571.397L509.583 564.559L500.122 563.767ZM510.997 564.678L509.993 571.556L513.429 571.943L514.251 564.951L510.997 564.678ZM550.921 252.665L567.678 109.962L561.841 108.883L550.921 252.665ZM561.945 107.506L567.838 108.595L568.216 105.377L562.178 104.438L561.945 107.506ZM562.287 103.004L568.383 103.951L569.573 93.8194L563.04 93.0832L562.287 103.004ZM354.066 70.6605L355.841 70.8092L360.151 71.6055L354.066 70.6605ZM112.69 49.0449L113.927 42.4705L104.199 41.3744L103.196 48.2493L112.69 49.0449ZM101.81 48.1334L102.82 41.219L99.4193 40.8357L98.594 47.8639L101.81 48.1334ZM61.8333 360.92L45.1707 502.818L50.9753 503.891L61.8333 360.92ZM50.8676 505.308L45.0056 504.224L44.6272 507.447L50.6344 508.38L50.8676 505.308ZM50.5284 509.775L44.4645 508.833L43.2754 518.959L49.7754 519.691L50.5284 509.775ZM575.934 110.091L569.19 108.845L569.573 105.588L576.436 106.654L575.934 110.091ZM116.726 35.2248L261.618 57.7379L115.587 41.2784L116.726 35.2248ZM115.332 35.008L114.181 41.1202L104.398 40.0175L105.355 33.4581L115.332 35.008ZM36.8447 502.716L43.6282 503.97L43.2451 507.232L36.342 506.159L36.8447 502.716ZM496.111 577.597L351.86 555.184L497.245 571.57L496.111 577.597ZM497.479 577.81L498.624 571.726L508.376 572.825L507.423 579.355L497.479 577.81ZM35.6804 501.064L58.6181 343.961L29.2721 499.88L35.6804 501.064ZM577.133 111.709L554.078 269.611L583.573 112.9L577.133 111.709Z" fill="#3C56FF"/>
</svg>
